P1
#point dynamique
3 5
000
000
000
000
010
