P1
#ecran statique 1
69 23
000000000000000000000000000000000000000100000000000000000000000000000
001000000000000000010000000000000000001110000000000000000000100000000
011100000000000000111000000000000000000100000000000000000001110000000
001000000000000000010000000000000000000000000000000100000000100000000
000000000000000000000000000010000000000000000000001110000000000000000
000000000000001000000000000111000000000000000000000100000000000000000
000000000000011100000000000010000000000001000000000000000000000000000
000000000000001000000000000000000000000011100000000000000000100000000
000000000000000000000000000000000000000001000000000000000001110000000
000000000000000000000000000000000000000000000000000000000000100000000
000001111000011000001000000001111011111010001011111011111000000000000
000001000000011000001000000001001010001010001010000010000000010000000
000001000000011100001000000001001010001010001010000010000000111000000
000001000000010100001000000001001010001010001010000010000000010000000
000001000000010110001000000001001010001010001010000010000000000000000
000001111000010010001000000001111011111010001011111011111000000000000
000001000000010011001000000001000010001010001000001010000000000000000
000001000000010001101000000001000010001010001000001010000000000000000
000001000000010000101000000001000010001010001000001010000000000010000
000001000000010000111000000001000010001010001000001010000000000111000
000001000000010000011000000001000010001010001000001010000000000010000
000001000000010000011000000001000010001010001000001010000000000000000
000001111000010000001000000001000010001011111011111011111000000000000





