P1
#avion en position bas
6 6
000110
000100
000100
010101
001110
000100
