P1
#2 dynamique
3 5
111
001
111
100
111
